M48
; DRILL file {KiCad 8.0.3} date 2024-09-04T21:40:20+0200
; FORMAT={-:-/ absolute / inch / decimal}
; #@! TF.CreationDate,2024-09-04T21:40:20+02:00
; #@! TF.GenerationSoftware,Kicad,Pcbnew,8.0.3
; #@! TF.FileFunction,NonPlated,1,2,NPTH
FMAT,2
INCH
; #@! TA.AperFunction,NonPlated,NPTH,ComponentDrill
T1C0.0256
; #@! TA.AperFunction,NonPlated,NPTH,ComponentDrill
T2C0.0689
; #@! TA.AperFunction,NonPlated,NPTH,ComponentDrill
T3C0.0866
; #@! TA.AperFunction,NonPlated,NPTH,ComponentDrill
T4C0.1570
%
G90
G05
T1
X8.73Y-1.1336
X8.9575Y-1.1336
T2
X1.425Y-1.3125
X1.425Y-2.25
X1.425Y-3.0
X1.425Y-3.75
X1.425Y-4.6875
X1.825Y-1.3125
X1.825Y-2.25
X1.825Y-3.0
X1.825Y-3.75
X1.825Y-4.6875
X2.175Y-1.3125
X2.2687Y-4.6875
X2.3625Y-2.25
X2.4562Y-3.0
X2.575Y-1.3125
X2.6437Y-3.75
X2.6687Y-4.6875
X2.7625Y-2.25
X2.8562Y-3.0
X2.925Y-1.3125
X3.0437Y-3.75
X3.1125Y-2.25
X3.1125Y-4.6875
X3.3Y-3.0
X3.325Y-1.3125
X3.5125Y-2.25
X3.5125Y-4.6875
X3.675Y-1.3125
X3.675Y-3.75
X3.7Y-3.0
X3.8625Y-2.25
X4.05Y-3.0
X4.075Y-1.3125
X4.075Y-3.75
X4.2625Y-2.25
X4.425Y-1.3125
X4.425Y-3.75
X4.45Y-3.0
X4.6125Y-2.25
X4.8Y-3.0
X4.8Y-4.6875
X4.825Y-1.3125
X4.825Y-3.75
X5.0125Y-2.25
X5.175Y-1.3125
X5.175Y-3.75
X5.2Y-3.0
X5.2Y-4.6875
X5.3625Y-2.25
X5.55Y-3.0
X5.575Y-1.3125
X5.575Y-3.75
X5.7625Y-2.25
X5.925Y-1.3125
X5.925Y-3.75
X5.925Y-4.6875
X5.95Y-3.0
X6.1125Y-2.25
X6.3Y-3.0
X6.325Y-1.3125
X6.325Y-3.75
X6.325Y-4.6875
X6.5125Y-2.25
X6.675Y-1.3125
X6.675Y-3.75
X6.7Y-3.0
X6.8625Y-2.25
X7.05Y-3.0
X7.05Y-4.6875
X7.075Y-1.3125
X7.075Y-3.75
X7.2625Y-2.25
X7.425Y-1.3125
X7.425Y-3.75
X7.45Y-3.0
X7.45Y-4.6875
X7.6125Y-2.25
X7.8Y-3.0
X7.825Y-1.3125
X7.825Y-3.75
X8.0125Y-2.25
X8.175Y-1.3125
X8.175Y-3.75
X8.2Y-3.0
X8.3625Y-2.25
X8.55Y-3.0
X8.575Y-1.3125
X8.575Y-3.75
X8.7375Y-4.6875
X8.7625Y-2.25
X8.95Y-3.0
X9.1125Y-3.75
X9.1375Y-4.6875
X9.2062Y-1.3125
X9.2062Y-2.25
X9.3Y-3.0
X9.4875Y-4.6875
X9.5125Y-3.75
X9.6062Y-1.3125
X9.6062Y-2.25
X9.7Y-3.0
X9.8875Y-4.6875
X10.2375Y-1.3125
X10.2375Y-2.25
X10.2375Y-3.0
X10.2375Y-3.75
X10.2375Y-4.6875
X10.6375Y-1.3125
X10.6375Y-2.25
X10.6375Y-3.0
X10.6375Y-3.75
X10.6375Y-4.6875
T3
X2.0938Y-1.7812
X2.0938Y-4.2188
X6.125Y-1.5938
X6.125Y-3.2812
X6.125Y-4.2812
X9.9688Y-1.7812
X9.9688Y-4.1875
T4
X1.625Y-1.3125
X1.625Y-2.25
X1.625Y-3.0
X1.625Y-3.75
X1.625Y-4.6875
X2.375Y-1.3125
X2.4688Y-4.6875
X2.5625Y-2.25
X2.6562Y-3.0
X2.8438Y-3.75
X3.125Y-1.3125
X3.3125Y-2.25
X3.3125Y-4.6875
X3.5Y-3.0
X3.875Y-1.3125
X3.875Y-3.75
X4.0625Y-2.25
X4.25Y-3.0
X4.25Y-4.3625
X4.625Y-1.3125
X4.625Y-3.75
X4.8125Y-2.25
X5.0Y-3.0
X5.0Y-4.6875
X5.375Y-1.3125
X5.375Y-3.75
X5.5625Y-2.25
X5.75Y-3.0
X5.75Y-4.3625
X6.125Y-1.3125
X6.125Y-3.75
X6.125Y-4.6875
X6.3125Y-2.25
X6.5Y-3.0
X6.5Y-4.3625
X6.875Y-1.3125
X6.875Y-3.75
X7.0625Y-2.25
X7.25Y-3.0
X7.25Y-4.6875
X7.625Y-1.3125
X7.625Y-3.75
X7.8125Y-2.25
X8.0Y-3.0
X8.0Y-4.3625
X8.375Y-1.3125
X8.375Y-3.75
X8.5625Y-2.25
X8.75Y-3.0
X8.9375Y-4.6875
X9.3125Y-3.75
X9.4062Y-1.3125
X9.4062Y-2.25
X9.5Y-3.0
X9.6875Y-4.6875
X10.4375Y-1.3125
X10.4375Y-2.25
X10.4375Y-3.0
X10.4375Y-3.75
X10.4375Y-4.6875
M30
