%TF.GenerationSoftware,KiCad,Pcbnew,8.0.3*%
%TF.CreationDate,2024-09-04T21:39:26+02:00*%
%TF.ProjectId,alqaztraz,616c7161-7a74-4726-917a-2e6b69636164,rev?*%
%TF.SameCoordinates,Original*%
%TF.FileFunction,Paste,Bot*%
%TF.FilePolarity,Positive*%
%FSLAX46Y46*%
G04 Gerber Fmt 4.6, Leading zero omitted, Abs format (unit mm)*
G04 Created by KiCad (PCBNEW 8.0.3) date 2024-09-04 21:39:26*
%MOMM*%
%LPD*%
G01*
G04 APERTURE LIST*
G04 Aperture macros list*
%AMRoundRect*
0 Rectangle with rounded corners*
0 $1 Rounding radius*
0 $2 $3 $4 $5 $6 $7 $8 $9 X,Y pos of 4 corners*
0 Add a 4 corners polygon primitive as box body*
4,1,4,$2,$3,$4,$5,$6,$7,$8,$9,$2,$3,0*
0 Add four circle primitives for the rounded corners*
1,1,$1+$1,$2,$3*
1,1,$1+$1,$4,$5*
1,1,$1+$1,$6,$7*
1,1,$1+$1,$8,$9*
0 Add four rect primitives between the rounded corners*
20,1,$1+$1,$2,$3,$4,$5,0*
20,1,$1+$1,$4,$5,$6,$7,0*
20,1,$1+$1,$6,$7,$8,$9,0*
20,1,$1+$1,$8,$9,$2,$3,0*%
G04 Aperture macros list end*
%ADD10RoundRect,0.250000X0.300000X-0.300000X0.300000X0.300000X-0.300000X0.300000X-0.300000X-0.300000X0*%
%ADD11RoundRect,0.250000X1.025000X1.000000X-1.025000X1.000000X-1.025000X-1.000000X1.025000X-1.000000X0*%
%ADD12RoundRect,0.225000X-0.225000X-0.250000X0.225000X-0.250000X0.225000X0.250000X-0.225000X0.250000X0*%
%ADD13RoundRect,0.225000X0.250000X-0.225000X0.250000X0.225000X-0.250000X0.225000X-0.250000X-0.225000X0*%
%ADD14RoundRect,0.200000X-0.200000X-0.275000X0.200000X-0.275000X0.200000X0.275000X-0.200000X0.275000X0*%
%ADD15RoundRect,0.200000X0.200000X0.275000X-0.200000X0.275000X-0.200000X-0.275000X0.200000X-0.275000X0*%
%ADD16RoundRect,0.250000X-0.625000X0.375000X-0.625000X-0.375000X0.625000X-0.375000X0.625000X0.375000X0*%
%ADD17R,1.800000X1.100000*%
%ADD18RoundRect,0.150000X0.150000X-0.512500X0.150000X0.512500X-0.150000X0.512500X-0.150000X-0.512500X0*%
%ADD19RoundRect,0.225000X0.225000X0.250000X-0.225000X0.250000X-0.225000X-0.250000X0.225000X-0.250000X0*%
%ADD20RoundRect,0.225000X-0.375000X0.225000X-0.375000X-0.225000X0.375000X-0.225000X0.375000X0.225000X0*%
%ADD21R,0.600000X1.450000*%
%ADD22R,0.300000X1.450000*%
%ADD23RoundRect,0.250000X-1.025000X-1.000000X1.025000X-1.000000X1.025000X1.000000X-1.025000X1.000000X0*%
%ADD24RoundRect,0.250000X-0.300000X0.300000X-0.300000X-0.300000X0.300000X-0.300000X0.300000X0.300000X0*%
%ADD25RoundRect,0.225000X-0.250000X0.225000X-0.250000X-0.225000X0.250000X-0.225000X0.250000X0.225000X0*%
%ADD26RoundRect,0.075000X0.521491X-0.415425X-0.415425X0.521491X-0.521491X0.415425X0.415425X-0.521491X0*%
%ADD27RoundRect,0.075000X0.521491X0.415425X0.415425X0.521491X-0.521491X-0.415425X-0.415425X-0.521491X0*%
%ADD28RoundRect,0.150000X-0.625000X0.150000X-0.625000X-0.150000X0.625000X-0.150000X0.625000X0.150000X0*%
%ADD29RoundRect,0.250000X-0.650000X0.350000X-0.650000X-0.350000X0.650000X-0.350000X0.650000X0.350000X0*%
%ADD30RoundRect,0.150000X-0.587500X-0.150000X0.587500X-0.150000X0.587500X0.150000X-0.587500X0.150000X0*%
G04 APERTURE END LIST*
D10*
%TO.C,D55*%
X268287500Y-120462500D03*
X268287500Y-117662500D03*
%TD*%
D11*
%TO.C,MX54*%
X238702500Y-116522500D03*
X252152500Y-113982500D03*
%TD*%
D10*
%TO.C,D54*%
X249237500Y-120462500D03*
X249237500Y-117662500D03*
%TD*%
D11*
%TO.C,MX27*%
X81540000Y-73660000D03*
X94990000Y-71120000D03*
%TD*%
D10*
%TO.C,D8*%
X177800000Y-34737500D03*
X177800000Y-31937500D03*
%TD*%
D11*
%TO.C,MX18*%
X133927500Y-54610000D03*
X147377500Y-52070000D03*
%TD*%
%TO.C,MX20*%
X172027500Y-54610000D03*
X185477500Y-52070000D03*
%TD*%
D10*
%TO.C,D21*%
X201612500Y-58550000D03*
X201612500Y-55750000D03*
%TD*%
%TO.C,D30*%
X149225000Y-77600000D03*
X149225000Y-74800000D03*
%TD*%
%TO.C,D19*%
X163512500Y-58550000D03*
X163512500Y-55750000D03*
%TD*%
%TO.C,D42*%
X158750000Y-96650000D03*
X158750000Y-93850000D03*
%TD*%
D12*
%TO.C,C11*%
X96081250Y-98825000D03*
X97631250Y-98825000D03*
%TD*%
D11*
%TO.C,MX51*%
X119640000Y-116522500D03*
X133090000Y-113982500D03*
%TD*%
%TO.C,MX24*%
X257752500Y-54610000D03*
X271202500Y-52070000D03*
%TD*%
D13*
%TO.C,C2*%
X222250000Y-43637500D03*
X222250000Y-42087500D03*
%TD*%
D14*
%TO.C,R2*%
X230950000Y-26193750D03*
X232600000Y-26193750D03*
%TD*%
D11*
%TO.C,MX7*%
X148215000Y-30797500D03*
X161665000Y-28257500D03*
%TD*%
D15*
%TO.C,R3*%
X105600000Y-103187500D03*
X103950000Y-103187500D03*
%TD*%
D11*
%TO.C,MX46*%
X229177500Y-92710000D03*
X242627500Y-90170000D03*
%TD*%
%TO.C,MX29*%
X119640000Y-73660000D03*
X133090000Y-71120000D03*
%TD*%
D10*
%TO.C,D25*%
X44450000Y-77600000D03*
X44450000Y-74800000D03*
%TD*%
%TO.C,D45*%
X215900000Y-96650000D03*
X215900000Y-93850000D03*
%TD*%
%TO.C,D35*%
X244475000Y-77600000D03*
X244475000Y-74800000D03*
%TD*%
%TO.C,D9*%
X196850000Y-34737500D03*
X196850000Y-31937500D03*
%TD*%
%TO.C,D39*%
X101600000Y-96650000D03*
X101600000Y-93850000D03*
%TD*%
D11*
%TO.C,MX38*%
X64871250Y-92710000D03*
X78321250Y-90170000D03*
%TD*%
%TO.C,MX40*%
X110115000Y-92710000D03*
X123565000Y-90170000D03*
%TD*%
D16*
%TO.C,F1*%
X226218750Y-35906250D03*
X226218750Y-38706250D03*
%TD*%
D11*
%TO.C,MX45*%
X205365000Y-92710000D03*
X218815000Y-90170000D03*
%TD*%
D10*
%TO.C,D1*%
X44450000Y-34737500D03*
X44450000Y-31937500D03*
%TD*%
D11*
%TO.C,MX3*%
X72015000Y-30797500D03*
X85465000Y-28257500D03*
%TD*%
%TO.C,MX15*%
X76777500Y-54610000D03*
X90227500Y-52070000D03*
%TD*%
D10*
%TO.C,D53*%
X230187500Y-120462500D03*
X230187500Y-117662500D03*
%TD*%
%TO.C,D50*%
X87312500Y-120462500D03*
X87312500Y-117662500D03*
%TD*%
D11*
%TO.C,MX33*%
X195840000Y-73660000D03*
X209290000Y-71120000D03*
%TD*%
D17*
%TO.C,SW5*%
X115812500Y-103125000D03*
X109612500Y-103125000D03*
X115812500Y-106825000D03*
X109612500Y-106825000D03*
%TD*%
D11*
%TO.C,MX23*%
X231558750Y-54610000D03*
X245008750Y-52070000D03*
%TD*%
%TO.C,MX48*%
X33915000Y-116522500D03*
X47365000Y-113982500D03*
%TD*%
D10*
%TO.C,D38*%
X75406250Y-96650000D03*
X75406250Y-93850000D03*
%TD*%
%TO.C,D12*%
X268287500Y-34737500D03*
X268287500Y-31937500D03*
%TD*%
%TO.C,D31*%
X168275000Y-77600000D03*
X168275000Y-74800000D03*
%TD*%
%TO.C,D13*%
X44450000Y-58550000D03*
X44450000Y-55750000D03*
%TD*%
D18*
%TO.C,U2*%
X230343750Y-38443750D03*
X229393750Y-38443750D03*
X228443750Y-38443750D03*
X228443750Y-36168750D03*
X229393750Y-36168750D03*
X230343750Y-36168750D03*
%TD*%
D10*
%TO.C,D49*%
X65881250Y-120462500D03*
X65881250Y-117662500D03*
%TD*%
%TO.C,D27*%
X92075000Y-77600000D03*
X92075000Y-74800000D03*
%TD*%
%TO.C,D18*%
X144462500Y-58550000D03*
X144462500Y-55750000D03*
%TD*%
D11*
%TO.C,MX31*%
X157740000Y-73660000D03*
X171190000Y-71120000D03*
%TD*%
%TO.C,MX52*%
X176790000Y-116522500D03*
X190240000Y-113982500D03*
%TD*%
D10*
%TO.C,D48*%
X44450000Y-120462500D03*
X44450000Y-117662500D03*
%TD*%
%TO.C,D37*%
X44450000Y-96650000D03*
X44450000Y-93850000D03*
%TD*%
D11*
%TO.C,MX37*%
X33915000Y-92710000D03*
X47365000Y-90170000D03*
%TD*%
D10*
%TO.C,D23*%
X242093750Y-58550000D03*
X242093750Y-55750000D03*
%TD*%
D11*
%TO.C,MX56*%
X148215000Y-116522500D03*
X161665000Y-113982500D03*
%TD*%
%TO.C,MX9*%
X186315000Y-30797500D03*
X199765000Y-28257500D03*
%TD*%
D10*
%TO.C,D34*%
X225425000Y-77600000D03*
X225425000Y-74800000D03*
%TD*%
D11*
%TO.C,MX30*%
X138690000Y-73660000D03*
X152140000Y-71120000D03*
%TD*%
%TO.C,MX5*%
X110115000Y-30797500D03*
X123565000Y-28257500D03*
%TD*%
%TO.C,MX12*%
X257752500Y-30797500D03*
X271202500Y-28257500D03*
%TD*%
%TO.C,MX39*%
X91065000Y-92710000D03*
X104515000Y-90170000D03*
%TD*%
%TO.C,MX6*%
X129165000Y-30797500D03*
X142615000Y-28257500D03*
%TD*%
%TO.C,MX49*%
X55346250Y-116522500D03*
X68796250Y-113982500D03*
%TD*%
D10*
%TO.C,D29*%
X130175000Y-77600000D03*
X130175000Y-74800000D03*
%TD*%
D11*
%TO.C,MX44*%
X186315000Y-92710000D03*
X199765000Y-90170000D03*
%TD*%
D12*
%TO.C,C12*%
X104000000Y-106362500D03*
X105550000Y-106362500D03*
%TD*%
D11*
%TO.C,MX36*%
X257752500Y-73660000D03*
X271202500Y-71120000D03*
%TD*%
D10*
%TO.C,D15*%
X87312500Y-58550000D03*
X87312500Y-55750000D03*
%TD*%
D11*
%TO.C,MX43*%
X167265000Y-92710000D03*
X180715000Y-90170000D03*
%TD*%
%TO.C,MX21*%
X191077500Y-54610000D03*
X204527500Y-52070000D03*
%TD*%
D10*
%TO.C,D16*%
X106362500Y-58550000D03*
X106362500Y-55750000D03*
%TD*%
%TO.C,D20*%
X182562500Y-58550000D03*
X182562500Y-55750000D03*
%TD*%
D19*
%TO.C,C15*%
X89675000Y-106362500D03*
X88125000Y-106362500D03*
%TD*%
D10*
%TO.C,D36*%
X268287500Y-77600000D03*
X268287500Y-74800000D03*
%TD*%
D11*
%TO.C,MX13*%
X33915000Y-54610000D03*
X47365000Y-52070000D03*
%TD*%
D10*
%TO.C,D46*%
X239712500Y-96650000D03*
X239712500Y-93850000D03*
%TD*%
%TO.C,D6*%
X139700000Y-34737500D03*
X139700000Y-31937500D03*
%TD*%
%TO.C,D26*%
X70643750Y-77600000D03*
X70643750Y-74800000D03*
%TD*%
D11*
%TO.C,MX28*%
X100590000Y-73660000D03*
X114040000Y-71120000D03*
%TD*%
%TO.C,MX42*%
X148215000Y-92710000D03*
X161665000Y-90170000D03*
%TD*%
%TO.C,MX34*%
X214890000Y-73660000D03*
X228340000Y-71120000D03*
%TD*%
D10*
%TO.C,D5*%
X120650000Y-34737500D03*
X120650000Y-31937500D03*
%TD*%
%TO.C,D52*%
X187325000Y-120462500D03*
X187325000Y-117662500D03*
%TD*%
%TO.C,D47*%
X268287500Y-96650000D03*
X268287500Y-93850000D03*
%TD*%
D11*
%TO.C,MX53*%
X219652500Y-116522500D03*
X233102500Y-113982500D03*
%TD*%
D20*
%TO.C,D_PWR1*%
X223837500Y-35656250D03*
X223837500Y-38956250D03*
%TD*%
D10*
%TO.C,D24*%
X268287500Y-58550000D03*
X268287500Y-55750000D03*
%TD*%
%TO.C,D4*%
X101600000Y-34737500D03*
X101600000Y-31937500D03*
%TD*%
D21*
%TO.C,J1*%
X221381250Y-30238750D03*
X222181250Y-30238750D03*
D22*
X223381250Y-30238750D03*
X224381250Y-30238750D03*
X224881250Y-30238750D03*
X225881250Y-30238750D03*
D21*
X227081250Y-30238750D03*
X227881250Y-30238750D03*
X227881250Y-30238750D03*
X227081250Y-30238750D03*
D22*
X226381250Y-30238750D03*
X225381250Y-30238750D03*
X223881250Y-30238750D03*
X222881250Y-30238750D03*
D21*
X222181250Y-30238750D03*
X221381250Y-30238750D03*
%TD*%
D11*
%TO.C,MX47*%
X257752500Y-92710000D03*
X271202500Y-90170000D03*
%TD*%
D10*
%TO.C,D28*%
X111125000Y-77600000D03*
X111125000Y-74800000D03*
%TD*%
%TO.C,D11*%
X242093750Y-34737500D03*
X242093750Y-31937500D03*
%TD*%
D11*
%TO.C,MX32*%
X176790000Y-73660000D03*
X190240000Y-71120000D03*
%TD*%
D10*
%TO.C,D3*%
X82550000Y-34737500D03*
X82550000Y-31937500D03*
%TD*%
D11*
%TO.C,MX25*%
X33915000Y-73660000D03*
X47365000Y-71120000D03*
%TD*%
D10*
%TO.C,D40*%
X120650000Y-96650000D03*
X120650000Y-93850000D03*
%TD*%
%TO.C,D7*%
X158750000Y-34737500D03*
X158750000Y-31937500D03*
%TD*%
D11*
%TO.C,MX26*%
X60108750Y-73660000D03*
X73558750Y-71120000D03*
%TD*%
D23*
%TO.C,MX10*%
X220085000Y-35877500D03*
X206635000Y-38417500D03*
%TD*%
D11*
%TO.C,MX14*%
X57727500Y-54610000D03*
X71177500Y-52070000D03*
%TD*%
D15*
%TO.C,R1*%
X218312500Y-26193750D03*
X216662500Y-26193750D03*
%TD*%
D10*
%TO.C,D14*%
X68262500Y-58550000D03*
X68262500Y-55750000D03*
%TD*%
D24*
%TO.C,D10*%
X209550000Y-31937500D03*
X209550000Y-34737500D03*
%TD*%
D11*
%TO.C,MX1*%
X33915000Y-30797500D03*
X47365000Y-28257500D03*
%TD*%
D25*
%TO.C,C14*%
X96043750Y-112731250D03*
X96043750Y-114281250D03*
%TD*%
D10*
%TO.C,D33*%
X206375000Y-77600000D03*
X206375000Y-74800000D03*
%TD*%
%TO.C,D44*%
X196850000Y-96650000D03*
X196850000Y-93850000D03*
%TD*%
D26*
%TO.C,U1*%
X101725376Y-106567538D03*
X101371822Y-106921092D03*
X101018269Y-107274645D03*
X100664715Y-107628199D03*
X100311162Y-107981752D03*
X99957609Y-108335305D03*
X99604055Y-108688859D03*
X99250502Y-109042412D03*
X98896949Y-109395965D03*
X98543395Y-109749519D03*
X98189842Y-110103072D03*
X97836288Y-110456626D03*
D27*
X95838712Y-110456626D03*
X95485158Y-110103072D03*
X95131605Y-109749519D03*
X94778051Y-109395965D03*
X94424498Y-109042412D03*
X94070945Y-108688859D03*
X93717391Y-108335305D03*
X93363838Y-107981752D03*
X93010285Y-107628199D03*
X92656731Y-107274645D03*
X92303178Y-106921092D03*
X91949624Y-106567538D03*
D26*
X91949624Y-104569962D03*
X92303178Y-104216408D03*
X92656731Y-103862855D03*
X93010285Y-103509301D03*
X93363838Y-103155748D03*
X93717391Y-102802195D03*
X94070945Y-102448641D03*
X94424498Y-102095088D03*
X94778051Y-101741535D03*
X95131605Y-101387981D03*
X95485158Y-101034428D03*
X95838712Y-100680874D03*
D27*
X97836288Y-100680874D03*
X98189842Y-101034428D03*
X98543395Y-101387981D03*
X98896949Y-101741535D03*
X99250502Y-102095088D03*
X99604055Y-102448641D03*
X99957609Y-102802195D03*
X100311162Y-103155748D03*
X100664715Y-103509301D03*
X101018269Y-103862855D03*
X101371822Y-104216408D03*
X101725376Y-104569962D03*
%TD*%
D10*
%TO.C,D22*%
X220662500Y-58550000D03*
X220662500Y-55750000D03*
%TD*%
D11*
%TO.C,MX4*%
X91065000Y-30797500D03*
X104515000Y-28257500D03*
%TD*%
%TO.C,MX2*%
X52965000Y-30797500D03*
X66415000Y-28257500D03*
%TD*%
D12*
%TO.C,C13*%
X104000000Y-104775000D03*
X105550000Y-104775000D03*
%TD*%
D11*
%TO.C,MX41*%
X129165000Y-92710000D03*
X142615000Y-90170000D03*
%TD*%
%TO.C,MX11*%
X231558750Y-30797500D03*
X245008750Y-28257500D03*
%TD*%
D28*
%TO.C,J2*%
X205962500Y-45331250D03*
X205962500Y-46331250D03*
X205962500Y-47331250D03*
X205962500Y-48331250D03*
D29*
X209837500Y-44031250D03*
X209837500Y-49631250D03*
%TD*%
D10*
%TO.C,D2*%
X63500000Y-34737500D03*
X63500000Y-31937500D03*
%TD*%
D30*
%TO.C,U3*%
X218137500Y-43812500D03*
X218137500Y-41912500D03*
X220012500Y-42862500D03*
%TD*%
D11*
%TO.C,MX35*%
X233940000Y-73660000D03*
X247390000Y-71120000D03*
%TD*%
%TO.C,MX50*%
X76777500Y-116522500D03*
X90227500Y-113982500D03*
%TD*%
%TO.C,MX17*%
X114877500Y-54610000D03*
X128327500Y-52070000D03*
%TD*%
D10*
%TO.C,D41*%
X139700000Y-96650000D03*
X139700000Y-93850000D03*
%TD*%
D11*
%TO.C,MX22*%
X210127500Y-54610000D03*
X223577500Y-52070000D03*
%TD*%
%TO.C,MX16*%
X95827500Y-54610000D03*
X109277500Y-52070000D03*
%TD*%
%TO.C,MX8*%
X167265000Y-30797500D03*
X180715000Y-28257500D03*
%TD*%
D10*
%TO.C,D43*%
X177800000Y-96650000D03*
X177800000Y-93850000D03*
%TD*%
D11*
%TO.C,MX55*%
X257752500Y-116522500D03*
X271202500Y-113982500D03*
%TD*%
D10*
%TO.C,D17*%
X125412500Y-58550000D03*
X125412500Y-55750000D03*
%TD*%
D11*
%TO.C,MX19*%
X152977500Y-54610000D03*
X166427500Y-52070000D03*
%TD*%
D13*
%TO.C,C3*%
X215900000Y-43637500D03*
X215900000Y-42087500D03*
%TD*%
D10*
%TO.C,D51*%
X130175000Y-120462500D03*
X130175000Y-117662500D03*
%TD*%
D19*
%TO.C,C16*%
X89656250Y-104775000D03*
X88106250Y-104775000D03*
%TD*%
D10*
%TO.C,D32*%
X187325000Y-77600000D03*
X187325000Y-74800000D03*
%TD*%
D25*
%TO.C,C1*%
X99818750Y-112731250D03*
X99818750Y-114281250D03*
%TD*%
M02*
