M48
; DRILL file {KiCad 8.0.3} date 2024-09-04T21:35:23+0200
; FORMAT={-:-/ absolute / inch / decimal}
; #@! TF.CreationDate,2024-09-04T21:35:23+02:00
; #@! TF.GenerationSoftware,Kicad,Pcbnew,8.0.3
; #@! TF.FileFunction,Plated,1,2,PTH
FMAT,2
INCH
; #@! TA.AperFunction,Plated,PTH,ViaDrill
T1C0.0118
; #@! TA.AperFunction,Plated,PTH,ComponentDrill
T2C0.0236
; #@! TA.AperFunction,Plated,PTH,ComponentDrill
T3C0.0394
; #@! TA.AperFunction,Plated,PTH,ComponentDrill
T4C0.0591
; #@! TA.AperFunction,Plated,PTH,ComponentDrill
T5C0.1181
; #@! TA.AperFunction,Plated,PTH,ComponentDrill
T6C0.1200
%
G90
G05
T1
X1.448Y-4.2519
X1.4496Y-4.2188
X1.4496Y-4.3381
X1.4496Y-4.3854
X1.625Y-1.5312
X1.625Y-4.9062
X1.9705Y-2.3483
X1.9705Y-3.098
X1.9705Y-3.8478
X2.0295Y-3.8477
X2.0365Y-1.6928
X2.0625Y-3.375
X2.1184Y-2.3483
X2.1184Y-3.0978
X3.4368Y-4.125
X3.4375Y-4.1875
X3.5114Y-3.8482
X3.5938Y-4.1562
X3.625Y-3.8482
X3.7807Y-4.5403
X3.8125Y-3.9375
X3.8125Y-4.1562
X3.8125Y-4.375
X3.8776Y-3.8907
X3.9062Y-4.125
X3.9294Y-4.5446
X4.0312Y-4.1562
X4.1875Y-4.125
X4.1875Y-4.1875
X4.2186Y-4.0601
X4.2188Y-4.1016
X8.4688Y-1.0312
X8.4955Y-1.75
X8.5938Y-1.6875
X8.75Y-1.25
X8.75Y-1.75
X8.7812Y-1.3438
X8.8125Y-1.4688
X8.9375Y-1.25
X9.0938Y-1.3438
X9.0938Y-1.4688
X9.2188Y-1.0312
X9.7382Y-3.8462
X9.7879Y-3.0983
X10.0143Y-3.0983
X10.032Y-3.8482
X10.4375Y-1.5312
X10.4375Y-4.9062
T3
X1.5266Y-1.0369
X1.5266Y-1.6078
X1.5266Y-4.4119
X1.5266Y-4.9828
X1.625Y-1.6078
X1.625Y-4.9828
X1.7234Y-1.0369
X1.7234Y-1.6078
X1.7234Y-4.4119
X1.7234Y-4.9828
X10.3391Y-1.0369
X10.3391Y-1.6078
X10.3391Y-4.4119
X10.3391Y-4.9828
X10.4375Y-1.6078
X10.4375Y-4.9828
X10.5359Y-1.0369
X10.5359Y-1.6078
X10.5359Y-4.4119
X10.5359Y-4.9828
T5
X1.475Y-1.2125
X1.475Y-2.15
X1.475Y-2.9
X1.475Y-3.65
X1.475Y-4.5875
X1.725Y-1.1125
X1.725Y-2.05
X1.725Y-2.8
X1.725Y-3.55
X1.725Y-4.4875
X2.225Y-1.2125
X2.3188Y-4.5875
X2.4125Y-2.15
X2.475Y-1.1125
X2.5063Y-2.9
X2.5688Y-4.4875
X2.6625Y-2.05
X2.6938Y-3.65
X2.7563Y-2.8
X2.9438Y-3.55
X2.975Y-1.2125
X3.1625Y-2.15
X3.1625Y-4.5875
X3.225Y-1.1125
X3.35Y-2.9
X3.4125Y-2.05
X3.4125Y-4.4875
X3.6Y-2.8
X3.725Y-1.2125
X3.725Y-3.65
X3.9125Y-2.15
X3.975Y-1.1125
X3.975Y-3.55
X4.1Y-2.9
X4.1625Y-2.05
X4.35Y-2.8
X4.475Y-1.2125
X4.475Y-3.65
X4.6625Y-2.15
X4.725Y-1.1125
X4.725Y-3.55
X4.85Y-2.9
X4.85Y-4.5875
X4.9125Y-2.05
X5.1Y-2.8
X5.1Y-4.4875
X5.225Y-1.2125
X5.225Y-3.65
X5.4125Y-2.15
X5.475Y-1.1125
X5.475Y-3.55
X5.6Y-2.9
X5.6625Y-2.05
X5.85Y-2.8
X5.975Y-1.2125
X5.975Y-3.65
X5.975Y-4.5875
X6.1625Y-2.15
X6.225Y-1.1125
X6.225Y-3.55
X6.225Y-4.4875
X6.35Y-2.9
X6.4125Y-2.05
X6.6Y-2.8
X6.725Y-1.2125
X6.725Y-3.65
X6.9125Y-2.15
X6.975Y-1.1125
X6.975Y-3.55
X7.1Y-2.9
X7.1Y-4.5875
X7.1625Y-2.05
X7.35Y-2.8
X7.35Y-4.4875
X7.475Y-1.2125
X7.475Y-3.65
X7.6625Y-2.15
X7.725Y-1.1125
X7.725Y-3.55
X7.85Y-2.9
X7.9125Y-2.05
X8.1Y-2.8
X8.225Y-3.65
X8.275Y-1.5125
X8.4125Y-2.15
X8.475Y-3.55
X8.525Y-1.4125
X8.6Y-2.9
X8.6625Y-2.05
X8.7875Y-4.5875
X8.85Y-2.8
X9.0375Y-4.4875
X9.1625Y-3.65
X9.2562Y-1.2125
X9.2562Y-2.15
X9.35Y-2.9
X9.4125Y-3.55
X9.5062Y-1.1125
X9.5062Y-2.05
X9.5375Y-4.5875
X9.6Y-2.8
X9.7875Y-4.4875
X10.2875Y-1.2125
X10.2875Y-2.15
X10.2875Y-2.9
X10.2875Y-3.65
X10.2875Y-4.5875
X10.5375Y-1.1125
X10.5375Y-2.05
X10.5375Y-2.8
X10.5375Y-3.55
X10.5375Y-4.4875
T6
X4.25Y-4.9625
X5.75Y-4.9625
X6.5Y-4.9625
X8.0Y-4.9625
T2
G00X8.6737Y-0.9781
M15
G01X8.6737Y-1.0017
M16
G05
G00X8.6737Y-1.1328
M15
G01X8.6737Y-1.1761
M16
G05
G00X9.0138Y-0.9781
M15
G01X9.0138Y-1.0017
M16
G05
G00X9.0138Y-1.1328
M15
G01X9.0138Y-1.1761
M16
G05
T4
G00X1.4045Y-1.3381
M15
G01X1.4045Y-1.2869
M16
G05
G00X1.4045Y-4.7131
M15
G01X1.4045Y-4.6619
M16
G05
G00X1.8455Y-1.3381
M15
G01X1.8455Y-1.2869
M16
G05
G00X1.8455Y-4.7131
M15
G01X1.8455Y-4.6619
M16
G05
G00X10.217Y-1.3381
M15
G01X10.217Y-1.2869
M16
G05
G00X10.217Y-4.7131
M15
G01X10.217Y-4.6619
M16
G05
G00X10.658Y-1.3381
M15
G01X10.658Y-1.2869
M16
G05
G00X10.658Y-4.7131
M15
G01X10.658Y-4.6619
M16
G05
M30
